<svg id="add-user" viewBox="0 0 32 32"><path d="M25.8 21.5H25v3h-3v.8h3v3h.8v-3h3v-.8h-3z"/><path d="M31.5 22.8c-1.1-3.3-4.8-5.1-8.1-4-.2.1-.5.2-.7.3-.1.1-.2.1-.3 0-1.2-.9-2.6-1.6-4-2 3.4-1.6 5.2-5.2 4.4-8.9-.8-3.2-3.6-5.6-7-6-3.5-.3-6.8 1.7-8 5-.8 1.9-.7 4 .1 5.9.8 1.8 2.2 3.2 4 4-5.2 1.5-8.8 6.2-8.7 11.6v.1h1v-.1c.3-5.1 2.8-8.5 7.2-10.2 3.3-1.3 7.1-.8 10 1.2l-.2.3c-.2.2-.4.5-.5.7-2.3 2.6-2.1 6.6.5 9 1.2 1 2.7 1.6 4.2 1.6h.4c2-.1 3.8-1.2 4.9-2.9 1.1-1.7 1.4-3.7.8-5.6zm-16.4-6.1c-1.8 0-3.5-.7-4.7-2-1.2-1.2-2-2.9-2-4.6-.1-3.7 2.9-6.8 6.6-6.8h.1c1.7 0 3.4.7 4.6 1.9 2.7 2.6 2.7 6.8.1 9.5-1.1 1.3-2.9 2-4.7 2zM30.7 25c0 1.4-.6 2.7-1.6 3.6-1 1-2.3 1.5-3.6 1.5-1.4 0-2.8-.6-3.8-1.6-2-2.1-2-5.4.1-7.4 1-1 2.3-1.5 3.7-1.5h.1c2.8.1 5.1 2.4 5.1 5.4z"/></svg>