<svg id="beta" viewBox="0 0 32 32"><path d="M14.1 24.1H18v-.8h-3v-2.1h2.5v-.8H15v-1.8h3v-.8h-3.9zm8.1 0h.9v-5.5h1.7v-.8h-4.3v.8h1.7zM9.9 20.7c.2-.1.4-.3.5-.5.1-.2.2-.4.2-.7 0-.3-.1-.6-.2-.9-.2-.3-.4-.5-.6-.6-.3-.1-.6-.2-.9-.2H6.5v6.3h2.6c.4 0 .7-.1 1-.2.3-.2.5-.4.7-.7.2-.3.3-.6.3-.9 0-.4-.1-.7-.3-1s-.5-.5-.9-.6zm-2.5-2.1h1.4c.2 0 .4.1.6.3s.3.4.3.6c0 .3-.1.5-.3.6-.2.2-.4.3-.6.3H7.4v-1.8zM9.9 23c-.2.2-.5.3-.8.3H7.4v-2.1h1.7c.3 0 .5.1.8.3.2.2.3.4.3.7 0 .3-.1.6-.3.8zm17.9-.2h2.6l.5 1.4h.9l-2.5-6.4h-.6l-2.5 6.4h.9l.7-1.4zm1.4-3.4l1 2.6h-2l1-2.6z"/><path d="M3.8 0v28.4l15.5 11 15.5-11V0h-31zm7 23.2c-.2.3-.4.5-.7.7-.3.2-.6.2-1 .2H6.5v-6.3h2.3c.3 0 .6.1.9.2.3.2.5.4.6.6.2.3.2.5.2.9 0 .3-.1.5-.2.7-.1.2-.3.4-.5.5.3.1.6.3.8.6s.3.6.3 1c.1.3.1.6-.1.9zm7.2-4.6h-3v1.8h2.5v.8H15v2.1h3v.8h-3.9v-6.3H18v.8zm6.8 0h-1.7v5.5h-.9v-5.5h-1.7v-.8h4.3v.8zm6.2 5.5l-.5-1.4h-2.6l-.5 1.4h-.9l2.5-6.4h.6l2.5 6.4H31z"/><path d="M29.2 19.4l-1 2.5h1.9zM9.1 21.2H7.4v2.1h1.7c.3 0 .5-.1.8-.3.2-.2.3-.4.3-.7 0-.3-.1-.5-.3-.7-.3-.3-.5-.4-.8-.4zm.4-1.1c.2-.2.3-.4.3-.6 0-.2-.1-.5-.3-.6s-.4-.3-.6-.3H7.4v1.8h1.4c.3 0 .5-.1.7-.3z"/><path d="M35.4 0v28.7L19.2 40.2 3.1 28.7V0H0v30.3L19.2 44l19.3-13.7V0z"/></svg>