<svg id="box" viewBox="0 0 32 32"><path d="M29.47 6.84c-4.31-1.71-8.62-3.43-12.93-5.14-.25-.1-.48-.1-.73 0C12.3 3.1 8.78 4.5 5.26 5.9l-2.3.92c-.5.19-.56.28-.56.82V23.8c-.01.48.27.65.5.71.03.01.06.02.1.04l5.99 2.71c2.26 1.02 4.53 2.04 6.79 3.06.07.03.21.1.4.1.13 0 .27-.03.42-.13.04-.02.08-.04.17-.08 4.24-1.91 8.48-3.81 12.72-5.71.3-.14.45-.36.45-.68V7.54c0-.35-.15-.58-.47-.7zm-13.87 6.3v15.82l-4.32-1.94c-2.55-1.15-5.1-2.29-7.65-3.44-.05-.02-.06-.04-.07-.04 0 0-.01-.02-.01-.07V8.29l2.38.95c3.2 1.28 6.4 2.55 9.6 3.83.06.01.07.02.07.07zm7.74 8.4c-.05-.32-.27-.52-.58-.52h-.01c-.3 0-.51.21-.55.53-.01.06-.01.12 0 .23v1.04c0 1.22 0 2.43-.02 3.7-1.59.71-3.18 1.42-4.76 2.13l-.66.3v-2.54c0-4.41 0-8.82-.01-13.23 0-.1 0-.1.1-.14 1.35-.53 2.7-1.07 4.05-1.61l1.3-.52v4.48c.03.3.24.5.54.53.13.01.27-.03.39-.12.12-.1.2-.25.22-.41.01-.07.01-.13 0-.25v-4.68l5.44-2.17v15.17c0 .1 0 .1-.09.14-1.41.62-2.81 1.25-4.22 1.88l-1.14.51v-4.23a.81.81 0 0 0 0-.22zM26.36 8c-1.16.46-2.32.93-3.48 1.38a.41.41 0 0 1-.22 0c-3.35-1.33-6.7-2.67-10.05-4l-1.47-.59 1.34-.54 3.6-1.44c.05-.02.14-.02.18-.01 3.77 1.5 7.54 3.01 11.31 4.52l.24.1-1.45.58zm-5.15 2.07l-3.45 1.38c-.5.2-1 .4-1.5.59-.05.02-.13.02-.18 0C12.28 10.52 8.49 9 4.69 7.49l-.15-.07 1.84-.74c1.03-.41 2.06-.83 3.1-1.24.06-.02.15-.02.18-.01 3.8 1.52 7.6 3.04 11.4 4.57l.15.07z" /></svg>