<svg id="connection" viewBox="0 0 32 32"><path d="M16.008 25.989a3.071 3.071 0 1 1 3.071-3.071 3.075 3.075 0 0 1-3.071 3.071zm0-5.143a2.071 2.071 0 1 0 2.071 2.071 2.073 2.073 0 0 0-2.071-2.07zm0-15.761a18.592 18.592 0 0 1 13.181 5.469l.759-.759a19.692 19.692 0 0 0-27.881 0l.759.759a18.592 18.592 0 0 1 13.182-5.469zm0 11.203a7.422 7.422 0 0 1 5.263 2.184l.759-.759a8.506 8.506 0 0 0-12.044 0l.759.759a7.422 7.422 0 0 1 5.263-2.184z"/><path d="M16.008 10.671a13.023 13.023 0 0 1 9.233 3.829l.759-.758a14.116 14.116 0 0 0-19.985 0l.76.758a13.023 13.023 0 0 1 9.233-3.829z"/></svg>