<svg id="daughter" viewBox="0 0 32 32"><path d="M15.89 28.88H5.7c-.52 0-.62-.1-.62-.61 0-3.91 0-7.83.01-11.74 0-.27-.07-.42-.32-.56-1.07-.63-1.7-1.57-1.74-2.82-.05-1.78-.02-3.57-.02-5.35 0-.15.05-.3.12-.44.57-1.17 1.16-2.34 1.73-3.51.23-.47.61-.7 1.13-.72h.46c6.34 0 12.69.01 19.03-.01.77 0 1.23.29 1.55.97.51 1.08 1.06 2.15 1.58 3.22.09.19.14.42.15.63.01 1.62 0 3.23.01 4.85.01 1.45-.6 2.54-1.88 3.24-.21.11-.19.27-.19.44v11.71c0 .64-.07.71-.72.71-3.36-.01-6.73-.01-10.09-.01zm-6.66-.83v-7.66c0-.55.09-.64.62-.64h12.04c.55 0 .65.09.65.65v7.64h3.47V16.39c-1.61.16-2.9-.36-3.77-1.78-.74 1.17-1.77 1.79-3.13 1.79-1.38 0-2.41-.62-3.14-1.79-.74 1.16-1.76 1.79-3.13 1.79-1.37 0-2.42-.6-3.15-1.8-.88 1.41-2.16 1.93-3.75 1.78v11.66c1.11.01 2.18.01 3.29.01zm.86-7.46v7.46h11.59v-7.46H10.09zM27.65 7.27c-.53-1.06-1.03-2.09-1.57-3.09-.07-.13-.33-.23-.5-.23-6.47-.01-12.94-.01-19.41-.01-.29 0-.48.12-.6.37-.47.93-.94 1.86-1.4 2.8a.71.71 0 0 0-.04.17c7.83-.01 15.65-.01 23.52-.01zm-17.62.85c0 1.7-.05 3.36.02 5.01.05 1.11.68 1.92 1.75 2.3 1.03.36 2.01.2 2.82-.56.61-.57.86-1.27.83-2.13-.06-1.42-.02-2.84-.02-4.25v-.37h-5.4zm11.64 0h-5.38c-.01.07-.02.13-.02.18 0 1.58-.01 3.16.01 4.75.02 1.11.75 2.05 1.82 2.42 1.01.35 2.24.03 2.92-.77.48-.57.69-1.21.66-1.97-.05-1.4-.01-2.81-.01-4.22v-.39zm.86 0c-.01.05-.03.08-.03.11 0 1.62-.03 3.23.02 4.85.03 1.03.57 1.82 1.52 2.26.99.45 1.98.38 2.86-.3.75-.58 1.06-1.35 1.02-2.33-.06-1.4-.02-2.81-.02-4.22v-.36c-1.82-.01-3.59-.01-5.37-.01zm-18.69 0c0 1.7-.04 3.36.01 5.01.03.99.56 1.76 1.46 2.19 1.88.89 3.9-.4 3.91-2.48.01-1.47 0-2.94 0-4.42 0-.1-.01-.19-.02-.3H3.84z"/></svg>