<svg id="euro" viewBox="0 0 32 32"><path d="M28.46 24.39c-1.12 1.41-2.49 2.5-4.11 3.29s-3.42 1.18-5.4 1.18c-1.93 0-3.7-.38-5.31-1.14s-2.97-1.82-4.08-3.17a13.015 13.015 0 0 1-2.42-4.56H2.49v-1.86h4.22c-.1-.95-.14-1.67-.14-2.15 0-.6.04-1.18.11-1.75H2.49v-1.86h4.54c.48-1.77 1.27-3.35 2.38-4.76 1.11-1.41 2.48-2.51 4.11-3.31 1.63-.8 3.44-1.2 5.42-1.2 1.91 0 3.65.36 5.22 1.09 1.57.73 2.91 1.75 4.01 3.06l-1.47 1.5a9.67 9.67 0 0 0-3.4-2.68 9.981 9.981 0 0 0-4.36-.97c-2.31 0-4.34.67-6.08 2-1.74 1.34-2.95 3.09-3.61 5.26h9.62v1.86H8.82c-.07.57-.11 1.16-.11 1.75 0 .67.06 1.38.18 2.15h9.98v1.86H9.39c.74 2.05 1.96 3.71 3.65 4.97 1.69 1.26 3.66 1.9 5.9 1.9 1.6 0 3.08-.33 4.44-1 1.36-.67 2.5-1.6 3.43-2.79l1.65 1.33z" /></svg>