<svg id="excel" viewBox="0 0 32 32"><path d="M6.6 25.8c-.6-.6-.6-1.6 0-2.2.7-.6 1.6-.6 2.3 0 .6.6.6 1.6 0 2.2-.6.6-1.6.6-2.3 0zm9.6.5l-1.6-2.4-1.7 2.4h-2.7l3.2-4.3-2.8-3.8h2.7l1.3 2 1.3-2h2.7L15.7 22l3.1 4.3h-2.6zm6-12.6v12.5H20V13.7h2.2zm2.3 10c.3.3.7.5 1.1.6.4.2.9.3 1.4.3.2 0 .5 0 .7-.2.2-.1.2-.2.2-.4 0-.3-.2-.5-.5-.6-.5-.3-1.1-.5-1.6-.7-.6-.2-1.1-.5-1.5-.9-.3-.4-.5-.8-.5-1.3s.1-.9.4-1.3c.3-.4.7-.7 1.2-.9.5-.2 1.1-.3 1.6-.3.7 0 1.5.1 2.2.3.4.2.6.3.7.4l-1 1.6c-.6-.3-1.2-.4-1.9-.4-.2 0-.4 0-.6.1-.1.1-.2.3-.2.4 0 .2.1.4.3.5.3.2.7.4 1.1.5l.6.3c.6.2 1.1.5 1.5.9.4.3.6.8.5 1.3 0 .7-.3 1.4-.9 1.9-.7.5-1.5.8-2.3.7-.7 0-1.4-.1-2.1-.3-.6-.2-1.1-.5-1.4-.9l1-1.6z"/><path d="M23.7 1.1H3.1v29.8h20.6v-2.2h-1.3v.8H4.5v-27h17.9V12h1.3z"/></svg>