<svg id="global-shopping" viewBox="0 0 32 32"><path d="M16.08 6.84h14.13L30.93 27h-9.49v1H32l-.83-22.16h-3.69a6.55 6.55 0 0 0-6.6-5.93 6.57 6.57 0 0 0-6.49 5.2 6.55 6.55 0 0 1 1.69 1.73zm4.8-5.93a5.57 5.57 0 0 1 5.61 4.94H15.27A5.56 5.56 0 0 1 20.88.91z"/><path d="M21.44 27l-.61-17.16h-3.69a6.26 6.26 0 0 0-1.06-3 6.55 6.55 0 0 0-1.69-1.71 6.71 6.71 0 0 0-3.84-1.2 6.55 6.55 0 0 0-6.6 5.93H.25L-.48 32h22.1l-.14-4zM10.54 4.91a5.57 5.57 0 0 1 5.61 4.94H4.94a5.56 5.56 0 0 1 5.6-4.94zM.54 31l.67-20.17h18.66L20.59 31z"/></svg>