<svg id="help" viewBox="0 0 32 32"><path d="M15.1 19.89v-4.15c0-.38.1-.68.3-.91.2-.23.48-.34.84-.34.95 0 1.75-.28 2.4-.84.65-.56.98-1.27.98-2.12 0-.83-.3-1.54-.91-2.12-.61-.58-1.35-.87-2.22-.87-.85 0-1.59.29-2.21.88-.62.59-.93 1.29-.93 2.1h-2.79c0-1.01.27-1.93.8-2.79.53-.85 1.25-1.53 2.16-2.02.91-.49 1.9-.74 2.96-.74 1.08 0 2.07.25 2.97.74.9.49 1.62 1.17 2.15 2.02.53.85.8 1.78.8 2.79 0 1.27-.42 2.36-1.27 3.27-.84.91-1.93 1.51-3.26 1.79v3.3H15.1zm.03 6.52c-.4-.39-.6-.88-.6-1.46 0-.59.2-1.07.6-1.45.4-.38.9-.57 1.51-.57s1.11.19 1.51.57c.4.38.6.86.6 1.45s-.2 1.08-.6 1.46c-.4.39-.9.58-1.51.58-.61.01-1.11-.19-1.51-.58z"/></svg>