<svg id="hide" viewBox="0 0 32 32"><path d="M30.8 15.9c-.3-.3-.5-.6-.8-.9-.5-.6-1-1.2-1.6-1.8-1.5-1.5-3.3-2.7-5.3-3.5l3.2-3.2.1-.1-.9-.9-3.7 3.7c-2.5-.8-5.1-1.1-7.8-.8C8.9 9 4.2 11.7 1.2 16c-.3.3-.3.8 0 1.1 1.8 2.5 4.3 4.5 7 5.9l-2.6 2.6-.1.1.9.9 3-3c2.2.8 4.5 1.3 6.9 1.3.2 0 .4 0 .6-.1.5 0 .9-.1 1.4-.1 5-.7 9.5-3.4 12.5-7.5.3-.5.3-1 0-1.3zm-28.4.8c-.1-.2-.1-.2 0-.3C5.6 12 10.6 9.5 16 9.5h.4c1.6 0 3.1.3 4.5.7l-2.3 2.3c-.8-.5-1.6-.8-2.6-.8-2.6 0-4.7 2.1-4.8 4.7 0 1 .3 1.8.8 2.6l-2.9 3c-2.6-1.2-4.9-3-6.7-5.3zm10-.1c0-1.9 1.5-3.6 3.5-3.6h.2c.6 0 1.2.2 1.7.5L13 18.3c-.4-.6-.6-1.1-.6-1.7zm6.3-2.4c.5.6.9 1.4.9 2.3 0 1.9-1.6 3.5-3.5 3.5-.9 0-1.7-.3-2.3-.8l4.9-5zm10.9 2.4c-3.2 4.3-8.2 6.8-13.5 6.8-2 0-3.9-.3-5.7-1l2.5-2.5c.8.7 1.9 1.2 3.1 1.2 2.6 0 4.7-2.1 4.7-4.7 0-1.2-.5-2.3-1.2-3.1l2.7-2.7c2.9 1.1 5.5 3.1 7.4 5.7.1.2.1.2 0 .3z"/></svg>