<svg id="language" viewBox="0 0 32 32"><path d="M16 1.4C8 1.4 1.6 7.8 1.6 15.7S8 30.1 15.9 30.1h.1c7.9 0 14.4-6.4 14.4-14.4C30.4 7.9 24 1.4 16 1.4zm-1.2 1.5c.2-.1.4-.1.6-.2v6.4c-1.6 0-3.2-.2-4.8-.6 0-.1.1-.2.1-.2.4-1.4 1.1-2.7 2-3.8.5-.7 1.3-1.3 2.1-1.6zm.6 7.4v4.9H9.5c0-1.9.3-3.7.7-5.6 1.8.4 3.5.7 5.2.7zm-3.1-7.2c-1 1.1-1.8 2.4-2.4 3.9-.1.3-.2.7-.4 1v.2c-1.1-.3-2.2-.8-3.2-1.3 1.6-1.8 3.7-3.1 6-3.8zM5.5 7.8c1.2.6 2.4 1.1 3.6 1.5-.5 1.9-.8 3.9-.8 5.9H2.8c.1-2.7 1.1-5.2 2.7-7.4zm-.1 15.9c-1.6-2.1-2.5-4.6-2.6-7.3h5.5c0 1.9.3 3.9.8 5.7-1.3.4-2.5.9-3.7 1.6zm.8.9c1-.5 2.1-1 3.3-1.3l.1.4c.5 1.5 1.3 3 2.3 4.2.2.2.3.4.5.6-2.4-.7-4.6-2-6.2-3.9zm9.2 4.3c-.2 0-.4-.1-.6-.2-.8-.3-1.5-.9-2-1.6-1-1.3-1.7-2.7-2.2-4.2 1.6-.4 3.2-.6 4.8-.6v6.6zm0-7.8c-1.7 0-3.4.3-5.1.7-.4-1.8-.7-3.6-.7-5.4h5.8v4.7zM26.5 7.8c1.6 2.1 2.6 4.7 2.7 7.4h-5.5c0-2-.3-4-.8-6 1.2-.3 2.4-.8 3.6-1.4zm-.8-.9c-1 .5-2.1.9-3.2 1.2-.6-1.9-1.5-3.6-2.9-5 2.4.7 4.5 2 6.1 3.8zm-9.1-4.2c.4.1.8.2 1.1.4.9.5 1.6 1.3 2.2 2.2.6 1 1.1 2.1 1.5 3.2-1.6.4-3.2.6-4.8.7V2.7zm0 7.6c1.7-.1 3.4-.3 5.1-.7.5 1.8.7 3.7.8 5.6h-5.9v-4.9zm0 6.1h5.9c0 1.8-.3 3.7-.7 5.5l-.5-.1c-.7-.1-1.3-.3-2-.4-.7-.1-1.3-.2-2-.2h-.6v-4.8zm0 12.5v-6.6c1.6.1 3.2.3 4.8.7v.1c-.1.3-.3.7-.4 1-.5 1.2-1.2 2.4-2.1 3.4-.6.7-1.4 1.2-2.3 1.4zm3-.4c.6-.6 1.1-1.3 1.5-2 .6-1 1-2 1.4-3.1 1.1.4 2.2.8 3.3 1.3-1.7 1.8-3.8 3.1-6.2 3.8zm9.5-11.1c-.2 1.8-.8 3.5-1.7 5.1l-.6.9-.2.3c-1.2-.6-2.4-1.1-3.7-1.5.5-1.9.8-3.9.8-5.8h5.5v.1c0 .3-.1.6-.1.9z"/></svg>