<svg id="lock-filled" viewBox="0 0 32 32"><path d="M25.54 16.02c-.06-1.12-.81-1.85-1.92-1.88 0-.36 0-.72.01-1.08.01-1.01.02-2.06-.03-3.1-.15-2.94-1.61-5.2-4.22-6.53-2.78-1.41-6.1-.96-8.45 1.16-1.62 1.46-2.47 3.28-2.53 5.42-.03 1.03-.02 2.06-.01 3.09l.01 1.05h-.04c-.18.01-.38.03-.59.09-.8.25-1.29.97-1.29 1.86v11.28c0 .08 0 .17.01.25.09 1.02.88 1.74 1.9 1.74h15.25c.13 0 .27 0 .42-.04.92-.21 1.49-.94 1.49-1.92l-.01-11.39zm-.6.03zM14.4 21.51c-.45-.56-.42-1.46-.02-2.06.46-.68 1.12-.97 1.93-.85.77.11 1.38.71 1.54 1.46.14.64-.02 1.21-.44 1.71a.56.56 0 0 0-.13.35c-.01.52 0 1.03-.01 1.55-.01.55-.27.96-.79 1.18-.48.2-.94.13-1.34-.22-.29-.25-.42-.58-.43-.96v-.8c0-.09-.01-.18 0-.27.04-.41-.03-.75-.31-1.09zm6.76-8.36v.98H10.84l-.01-1.05c-.01-.99-.02-1.99.01-2.98.05-1.75.81-3.13 2.24-4.1a5.135 5.135 0 0 1 6.16.27c1.18.95 1.8 2.19 1.86 3.66.06 1.07.06 2.15.06 3.22zm.57 1.43h.02-.02z" /></svg>