<svg id="lock" viewBox="0 0 32 32"><path d="M8.64 14.67V9.74a7 7 0 0 1 2.44-5.23 7.25 7.25 0 0 1 8.16-1.12 7.09 7.09 0 0 1 4.09 6.31c.08 1.55 0 3.11 0 4.67v.3h.58a1.36 1.36 0 0 1 1.43 1.38v11.91a1.34 1.34 0 0 1-1.08 1.4 1.37 1.37 0 0 1-.3 0H8a1.32 1.32 0 0 1-1.38-1.26V16.07a1.33 1.33 0 0 1 .92-1.36 2.37 2.37 0 0 1 .55-.08c.17.03.35.04.55.04zm13.37 0a1.31 1.31 0 0 0 0-.15v-4.9a5.65 5.65 0 0 0-2.21-4.3A6 6 0 0 0 12.61 5 5.73 5.73 0 0 0 10 9.8v4.86h12zm-7.35 8.53v.84a1.31 1.31 0 0 0 .45 1 1.34 1.34 0 0 0 2.23-1v-1.62a.63.63 0 0 1 .15-.42 2 2 0 0 0 .51-1.75 2 2 0 0 0-3.64-.64 1.9 1.9 0 0 0 0 2.16 1.5 1.5 0 0 1 .33 1.14c-.04.09-.03.19-.03.28z"/></svg>