<svg id="nexus" viewBox="0 0 165.9 41.6"><path d="M13.1 23.5c-1.3-.8-2.8-1.2-4.4-1.2-1.6 0-3 .4-4.3 1.2-1.4.8-2.4 1.9-3.2 3.3-.8 1.4-1.2 3.1-1.2 5v9.8h1.6v-9.8c0-1.6.3-2.9 1-4.1.6-1.2 1.5-2.1 2.6-2.7 1.1-.6 2.3-1 3.6-1 1.3 0 2.5.3 3.6 1 1.1.6 1.9 1.6 2.6 2.7.6 1.2 1 2.6 1 4.1v9.8h1.6v-9.8c0-1.9-.4-3.5-1.2-5-.9-1.4-2-2.5-3.3-3.3zm115.5 8.6s-.2 2.9-.9 4.1c-.6 1.2-1.5 2.1-2.6 2.7-1.1.6-2.3 1-3.6 1s-2.5-.3-3.6-1c-1.1-.6-1.9-1.6-2.6-2.7-.6-1.2-1-2.6-1-4.1v-9.8h-1.6v9.8c0 1.9.4 3.5 1.2 5 .8 1.4 1.8 2.5 3.2 3.3 1.3.8 2.8 1.2 4.4 1.2 1.6 0 3-.4 4.3-1.2 1.3-.8 2.4-1.9 3.2-3.3.8-1.4 1.2-3.1 1.2-5v-9.8h-1.6v9.8zm-82.5-9.8c-5.7 0-9.1 4.5-9.1 9.8 0 5.4 4.2 9.5 9.8 9.5 2.9 0 6.2-1.4 7.7-3.4l-.9-1.4c-1.3 1.9-4.2 3.1-6.9 3.1-4.3 0-7.7-2.9-8.1-7h16.7c.4-5.6-3.1-10.6-9.2-10.6zm-7.4 9c.3-4 3-7.3 7.4-7.3s7.1 3.4 7.4 7.3H38.7zm121.2-.3c-3.1-1.3-5.1-2.1-5.1-4.2 0-1.9 1.6-3.1 4.2-3.1 2.1 0 3.9.7 5.5 2.2l1-1.2c-2-1.7-4.2-2.5-6.5-2.5-3.4 0-5.7 1.8-5.7 4.6 0 3.2 3.1 4.4 6.1 5.6 3.1 1.3 5 1.8 5 4.5 0 1.8-1.9 3.1-4.8 3.1-2.1 0-4.8-.9-6.1-2.1l-1 1.2c1.6 1.4 4.7 2.5 7.1 2.5 3.8 0 6.3-1.9 6.3-4.6 0-3.9-2.9-4.7-6-6zm-77.2.8l-7.9-7.7 6.9 7.7-7.4 7.2 1.1 1.1 7.1-8zm9.6-8.2L85 31.9l7.8 7.6-6.9-7.6 7.4-7.2zm-8.5 7.1l.3-.2 7.4-7.6-7.7 6.9-7.2-7.5-1 1.1zM76.1 41l7.7-6.9 7.2 7.5 1-1.1-8.2-7.3zm-20-35.6l1.1 1.7 2.1-3.4v7.5h1.9V.3h-1.9zM48.9.3v10.9h1.9V3.7l4.3 6.6 1.1-1.7L50.8.3zm21.9 0h-2.1l2.9 5.8h-3.8l1-1.9-1-2-4.8 9h2.1l1.8-3.4h5.5l1.8 3.4h2.2zm18.1 0H87v5.3l1.9 1.8zm-9.1 2.8l7.7 8.1h1.4V9.8l-9-9.5H78v10.9h1.8zm18.4-1.3c1.5 0 2.9.6 3.8 1.5l1.5-1.3c-1.3-1.2-3.2-2-5.3-2-3.5 0-6.6 2.2-6.9 5.2h2.1c.3-1.9 2.3-3.4 4.8-3.4zM98 7h4v.8c0 .9-1.4 1.4-2.3 1.6-.5.1-1.1.2-1.5.2H98c-2.1 0-3.8-1.1-4.5-2.6h-2.1c.7 2.6 3.4 4.4 6.7 4.4.8 0 1.6-.1 2.3-.2 1.6-.4 3.4-1.4 3.4-3v-3H98V7zm14.6-5.2c2.6 0 4.7 1.8 4.7 3.9 0 1.9-1.6 3.5-3.8 3.8v1.8c3.2-.4 5.8-2.7 5.8-5.6 0-3.2-3-5.7-6.7-5.7-3.6 0-6.7 2.4-6.7 5.6 0 3 2.5 5.4 5.8 5.8V9.5c-2.2-.3-3.8-1.9-3.8-3.8 0-2.2 2.1-3.9 4.7-3.9z"/></svg>