<svg id="no-connection" viewBox="0 0 32 32"><path d="M25.546 4.29L5.658 24.177l-.088.089.884.884L26.342 5.263l.088-.089-.884-.884zM16 27.71a3.071 3.071 0 1 1 3.071-3.071A3.075 3.075 0 0 1 16 27.71zm0-5.143a2.071 2.071 0 1 0 2.071 2.071A2.073 2.073 0 0 0 16 22.567z"/><path d="M16 6.8a18.592 18.592 0 0 1 13.181 5.469l.759-.759a19.692 19.692 0 0 0-27.881 0l.759.759A18.592 18.592 0 0 1 16 6.8zm0 11.208a7.422 7.422 0 0 1 5.263 2.184l.759-.759a8.506 8.506 0 0 0-12.044 0l.759.759A7.422 7.422 0 0 1 16 18.008z"/><path d="M16 12.391a13.023 13.023 0 0 1 9.233 3.831l.759-.759a14.116 14.116 0 0 0-19.985 0l.759.759A13.023 13.023 0 0 1 16 12.391z"/></svg>