<svg id="opi" viewBox="0 0 32 32"><path d="M19.92 7.92L4.05 13.64v-.79H1.99v6.3h2.06v-.82l3.8 1.36-.94 2.47 6.79 2.59 1-2.62 5.22 1.86v1.14h1.96V6.86h-1.96v1.06zm-7.03 15.03l-4.19-1.6.46-1.2 4.23 1.51-.5 1.29zM24.06 14c.05 0 .09-.01.14-.03l4.85-2.09c.18-.08.26-.28.18-.46-.08-.18-.28-.26-.46-.18l-4.85 2.09c-.18.08-.26.28-.18.46.06.14.18.21.32.21zm5.01 6.02l-4.91-1.95a.35.35 0 0 0-.45.19c-.07.18.02.38.19.45l4.91 1.95c.04.02.09.02.13.02.14 0 .27-.08.32-.22a.343.343 0 0 0-.19-.44zm.59-4.34h-5.23c-.19 0-.35.16-.35.35 0 .19.16.35.35.35h5.23c.19 0 .35-.16.35-.35 0-.19-.16-.35-.35-.35z"/></svg>