<svg id="pdf" viewBox="0 0 32 32"><path d="M4 23.2c-.5.5-.5 1.3 0 1.8.6.5 1.4.5 2 0 .5-.5.5-1.3 0-1.8-.6-.4-1.4-.4-2 0zm18.6-4c-.3-.2-.7-.4-1-.6-.4-.1-.8-.2-1.1-.2-.6 0-1.2.2-1.8.5-.5.3-1 .8-1.3 1.3-.6 1.1-.6 2.5 0 3.6.3.5.7 1 1.3 1.3.5.3 1.2.5 1.8.5.4 0 .8-.1 1.1-.2.4-.1.7-.3 1-.6v.6h1.9V14.9h-1.9v4.3zm-.1 3.5c-.2.3-.4.6-.8.8-.3.2-.6.3-1 .3s-.7-.1-1.1-.2c-.3-.2-.5-.4-.7-.7-.3-.5-.3-1.2 0-1.8.2-.3.4-.5.7-.7.3-.2.7-.3 1.1-.2.3 0 .7.1 1 .3.3.2.6.5.8.8v1.4zm6.6-4.2v-.7c0-.7.6-1.2 1.3-1.2.1 0 .3 0 .4.1.1 0 .2.1.3.1l.4-1.7c-.1-.1-.3-.1-.5-.2-.2 0-.4-.1-.6-.1-.6 0-1.1.1-1.6.4-.5.3-.9.6-1.1 1.1-.3.5-.4 1.1-.4 1.6v.6h-1.8v1.6h1.8v5.3h1.9v-5.3h2v-1.6h-2.1z"/><path d="M18.6 28.7H9.9v-3.9c.3.2.7.4 1 .6.4.1.8.2 1.1.2.6 0 1.2-.2 1.8-.5.5-.3 1-.8 1.3-1.3.6-1.1.6-2.5 0-3.6-.3-.5-.7-1-1.3-1.3-.5-.3-1.2-.5-1.8-.5-.4 0-.8.1-1.1.2-.4.1-.7.3-1 .6v-.6H8.1v10.2H1.8V3.3h16.8v9h1.3V2H.5v28h19.4v-2h-1.3v.7zM10 21.2c.2-.3.4-.6.8-.8.3-.2.6-.3 1-.3s.7.1 1.1.2c.3.2.5.4.7.7.3.5.3 1.2 0 1.8-.2.3-.4.5-.7.7-.3.2-.7.3-1.1.2-.3 0-.7-.1-1-.3-.3-.2-.6-.5-.8-.8v-1.4z"/></svg>