<svg id="provisional" viewBox="0 0 32 32"><path d="M20.584 12.145a2.124 2.124 0 1 1 2.124-2.124 2.127 2.127 0 0 1-2.124 2.124zm0-3.136a1.012 1.012 0 1 0 1.016 1.012 1.013 1.013 0 0 0-1.016-1.012zm8.586 14.224l.87-.493.493.872-.871.492zm-2.536-4.487l.872-.492.845 1.496-.872.492zm-1.267-2.243l.87-.493.846 1.495-.87.492zM27.9 20.99l.872-.493.845 1.496-.871.493zm-2.909-7.184l-1.156 1.209.723.691.225-.236.161.284.87-.492-.823-1.456zm-3.103 3.243l1.298-1.356.722.691-1.297 1.356zm-1.946 2.034l1.298-1.356.722.69-1.297 1.357zm-.938.981l-.255-.332-.792.611.966 1.252 1.093-1.143-.723-.691-.289.303zm-.821-1.067l-.652-.845V19.5l.652-.503zm-7.754-10.06l-8.961 9.342.721.692 8.157-8.503 6.185 8.025v-1.638l-6.102-7.918z"/></svg>