<svg id="refresh" viewBox="0 0 32 32"><path d="M22.3 21.6h5.5c0 .1-.1.1-.1.2-1 1.2-2 2.4-3.1 3.5-2.8 2.7-6.6 3.8-10.4 3.2-2.7-.3-5.1-1.6-7-3.5-2.2-2.1-3.5-4.9-3.7-7.9 0-.4 0-.7-.1-1.1H2v.3c.1.7.1 1.3.2 2 .5 3.4 2.3 6.5 5.1 8.6 3.5 2.8 8 3.7 12.3 2.6 2.5-.6 4.7-1.9 6.4-3.7.9-.9 1.7-1.9 2.6-2.8v4.9H30v-7.7h-7.7v1.4zM9.7 10.4H4.2v-.1c1-1.3 2-2.4 3.1-3.5 3-2.9 7.2-4.1 11.3-3.1 2.5.5 4.8 1.8 6.6 3.7 1.9 2 3.1 4.5 3.4 7.2.1.5.1.9.1 1.4H30c-.1-.7-.1-1.3-.2-2-.5-3.8-2.6-7.2-5.7-9.4-2.8-2.1-6.4-3-9.9-2.6-2.8.3-5.4 1.4-7.5 3.3-1.1 1-2.2 2.1-3.1 3.3 0 .2-.1.3-.2.5v-5H2v7.7h7.7v-1.4z"/></svg>