<svg id="scan" viewBox="0 0 32 32"><g><g><path d="M8.143 1.7v1.2H2.352v5.842H1.026V1.7h7.117zM23.89 2.955V1.706h7.087v7.056h-1.228V2.955H23.89zM1.027 23.214h1.259v5.843h5.84v1.222h-7.1v-7.065zM23.884 30.3v-1.22h5.823v-5.847H31V30.3h-7.116z"/></g><g><path d="M19.921 23.327h-2.045V8.682h2.045v14.645zm3.584-.002h-1.86V8.681h1.861v14.644zM9.4 8.679h1.475v14.644H9.4V8.679zm2.07-.006h1.465v14.652H11.47V8.673zM8.224 23.326h-1.39V8.685h1.39v14.641zm5.89-14.648h.712v14.644h-.712V8.678zM16.7 23.325h-.71V8.676h.71v14.649zm7.778-14.646h.713v14.644h-.713V8.679z"/></g></g></svg>