<svg id="shop" viewBox="0 0 32 32"><g><path d="M24.31 1.75c-.15-.31-.35-.43-.7-.43-6.46.01-12.92.01-19.38 0-.35 0-.55.14-.7.44-.42.89-.86 1.76-1.3 2.64-.04.08-.07.17-.11.28h23.64c-.5-1.01-.99-1.96-1.45-2.93zm-4.55 4.16v-.38h-5.42c0 1.69-.03 3.35.01 5 .02 1.01.55 1.77 1.44 2.21.98.49 1.98.43 2.88-.22.78-.57 1.13-1.34 1.1-2.34-.05-1.43-.01-2.85-.01-4.27zm-12.5 4.34c.01-1.47 0-2.94 0-4.4 0-.11-.01-.21-.02-.33H1.87c-.02.06-.03.09-.03.12 0 1.6-.03 3.2.01 4.8.03 1.05.54 1.87 1.5 2.32 1.89.89 3.9-.41 3.91-2.51zm18.75-4.73h-5.42c0 1.7-.04 3.35.02 5.01.04 1.08.62 1.88 1.64 2.29 1.03.41 2.03.29 2.88-.45.66-.57.94-1.3.9-2.2-.06-1.42-.01-2.85-.02-4.27v-.38zM8.13 25.55h7.12c-.01-.16-.02-.31-.02-.47 0-2.87 1.39-5.42 3.52-7.02H8.13v7.49zm5.36-19.68c0-.12-.01-.23-.02-.35h-5.4c0 1.71-.05 3.39.02 5.07.04 1.06.65 1.85 1.65 2.24 1 .39 1.96.28 2.8-.41.69-.57 1-1.31.96-2.24-.05-1.44-.01-2.88-.01-4.31z" fill="none"/><path d="M8.13 25.55v-7.5h10.62c.42-.31.87-.59 1.34-.83-.04 0-.07-.01-.12-.01H7.94c-.6 0-.68.08-.68.69v7.63H3.95v-11.7c.74.03 1.47.02 2.16-.31.68-.33 1.21-.8 1.61-1.49.73 1.19 1.78 1.8 3.15 1.81 1.38.01 2.42-.63 3.16-1.8 1.36 2.37 4.88 2.44 6.31.01.86 1.4 2.15 1.93 3.77 1.77v2.46c.23 0 .46.01.69.03v-2.43c0-.18-.01-.32.2-.44 1.27-.69 1.88-1.78 1.88-3.22 0-1.65 0-3.29-.01-4.94 0-.19-.05-.39-.14-.57-.53-1.1-1.09-2.19-1.62-3.3-.31-.65-.78-.94-1.51-.94-4.9.02-9.81.01-14.71.01-1.58 0-3.16.01-4.74 0-.63 0-1.07.24-1.34.82-.53 1.18-1.11 2.31-1.67 3.45-.07.14-.12.31-.12.47-.01 1.78-.04 3.56.01 5.34.03 1.28.68 2.24 1.78 2.88.21.12.28.24.28.48-.01 3.94-.01 7.89-.01 11.83 0 .55.09.64.63.64h11.62c-.04-.28-.07-.55-.08-.84H8.13zm4.41-13.13c-.84.69-1.8.8-2.8.41-1.01-.39-1.61-1.18-1.65-2.24-.07-1.68-.02-3.36-.02-5.07h5.4c.01.12.02.23.02.35 0 1.44-.04 2.87.02 4.31.03.93-.28 1.66-.97 2.24zm6.13.1c-.9.65-1.9.7-2.88.22-.9-.44-1.42-1.21-1.44-2.21-.04-1.65-.01-3.31-.01-5h5.42v.38c0 1.42-.04 2.85.01 4.27.04 1-.32 1.77-1.1 2.34zm7.36-2.35c.04.9-.24 1.63-.9 2.2-.85.74-1.85.87-2.88.45-1.01-.41-1.6-1.21-1.64-2.29-.06-1.65-.02-3.31-.02-5.01h5.42v.37c0 1.43-.04 2.85.02 4.28zM2.23 4.4c.44-.88.88-1.75 1.31-2.64.15-.3.35-.44.7-.44 6.46.01 12.92.01 19.38 0 .35 0 .55.12.7.43.46.96.95 1.91 1.45 2.92H2.13c.03-.1.06-.19.1-.27zm1.12 8.37c-.96-.45-1.47-1.27-1.5-2.32-.04-1.6-.01-3.2-.01-4.8 0-.03.02-.06.03-.12h5.37c.01.12.02.22.02.33 0 1.47.01 2.94 0 4.4-.01 2.09-2.02 3.39-3.91 2.51z"/><path d="M24.01 19.24h-2.12v5.15l-1.18-.01a2.31 2.31 0 0 0-2.27-1.96c-1.27 0-2.31 1.04-2.31 2.31s1.04 2.31 2.31 2.31c1.15 0 2.12-.85 2.28-2l1.18.01v5.14h2.12v1.58h3.82v-3.82h-3.82v1.58h-1.45v-4.47l1.45.01v1.58h3.82v-3.82h-3.82v1.58l-1.45-.01v-4.49h1.45v1.58h3.82v-3.82h-3.82v1.57zm3.16 6.75h-2.49V23.5h2.49v2.49zm-8.73.4c-.91 0-1.64-.74-1.64-1.64 0-.91.74-1.65 1.64-1.65.91 0 1.64.74 1.64 1.65 0 .9-.73 1.64-1.64 1.64zm8.73 4.72h-2.49v-2.49h2.49v2.49zm0-10.29h-2.49v-2.49h2.49v2.49z"/></g></svg>