<svg id="show" viewBox="0 0 32 32"><path d="M31 15.9c-.3-.3-.5-.6-.8-.9-.5-.6-1-1.2-1.6-1.8-3.8-3.7-9.1-5.4-14.3-4.8C9.1 9 4.4 11.7 1.4 16c-.3.3-.3.8 0 1.1 3.5 4.9 9.1 7.7 15.1 7.7.2 0 .4 0 .6-.1.5 0 .9-.1 1.4-.1 5-.7 9.5-3.4 12.5-7.5.3-.4.3-.9 0-1.2zm-1.2.7c-3.2 4.3-8.2 6.8-13.5 6.8-5.4 0-10.4-2.5-13.7-6.8-.1-.2-.1-.2 0-.3 3.2-4.3 8.2-6.8 13.6-6.8h.4c5.2.1 10.2 2.6 13.3 6.8 0 .2 0 .2-.1.3z"/><path d="M16.2 11.8c-1.3 0-2.5.5-3.4 1.4-1.8 1.8-1.8 4.8.1 6.6.9.9 2.1 1.4 3.3 1.4 2.6 0 4.7-2.1 4.7-4.7 0-1.2-.5-2.4-1.4-3.3-.8-.9-2-1.4-3.3-1.4zm3.5 4.7c0 1.9-1.5 3.5-3.5 3.5-1.9 0-3.5-1.6-3.5-3.5s1.6-3.5 3.5-3.5c1.9-.1 3.5 1.5 3.5 3.5 0-.1 0 0 0 0z"/></svg>