<svg id="user-account" viewBox="0 0 32 32"><circle class="cls-1" cx="16" cy="13.984" r="5.901"/><path class="cls-1" d="M15.976 3.12a12.867 12.867 0 0 0-9.211 21.865A10.993 10.993 0 0 1 13.3 20.24a6.817 6.817 0 1 1 5.4 0 10.993 10.993 0 0 1 6.514 4.714A12.866 12.866 0 0 0 15.976 3.12z"/><path class="cls-1" d="M16 20.805a10.022 10.022 0 0 0-8.554 4.82 12.8 12.8 0 0 0 17.09-.028A10.021 10.021 0 0 0 16 20.805z"/><path d="M15.976 2A13.987 13.987 0 0 0 6.2 26c.228.223.464.435.707.642a13.933 13.933 0 0 0 18.182-.03c.241-.207.479-.419.706-.642A13.989 13.989 0 0 0 15.976 2zM7.544 25.7l.009-.014a9.875 9.875 0 0 1 16.877-.027l.009.014a12.781 12.781 0 0 1-16.895.027zm2.68-11.72A5.776 5.776 0 1 1 16 19.759a5.783 5.783 0 0 1-5.776-5.775zM25.3 24.857a11.068 11.068 0 0 0-6.236-4.648 6.942 6.942 0 1 0-6.129 0 11.067 11.067 0 0 0-6.255 4.68 12.881 12.881 0 1 1 18.62-.032z"/></svg>