<svg id="volume" viewBox="0 0 32 32"><path d="M14.98 6.25c-2.35 1.77-4.7 3.54-7.05 5.32-.07.05-.12.07-.2.07H2.75v8.72h4.99c.08 0 .12.01.18.06 2.08 1.57 4.16 3.15 6.25 4.72l3 2.25V6.1l-.07-1.4-2.12 1.55zm.09 17.69c-2.08-1.57-4.17-3.14-6.25-4.72-.33-.24-.68-.36-1.08-.36H4.25v-5.72h3.49c.44-.03.8-.15 1.1-.37l6.26-4.73.57-.43v16.77l-.6-.44zM25.24 4.82l-.18-.18-.95.96.18.18c2.74 2.74 4.24 6.37 4.24 10.23 0 3.86-1.51 7.49-4.24 10.23l-.18.18.95.95.18-.18c2.99-2.99 4.64-6.96 4.64-11.18s-1.65-8.2-4.64-11.19z"/><path d="M22.91 7.94l-.18-.18-.95.95.18.18c1.9 1.9 2.95 4.43 2.95 7.11 0 2.68-1.05 5.21-2.95 7.11l-.18.18.95.95.18-.18c2.16-2.16 3.34-5.02 3.34-8.06 0-3.04-1.18-5.91-3.34-8.06z"/></svg>